<svg width="13" height="14" viewBox="0 0 13 14" fill="none" xmlns="http://www.w3.org/2000/svg">
<path d="M3.25 4.78462V9.16671C3.25 10.0287 3.59241 10.8553 4.2019 11.4648C4.8114 12.0743 5.63805 12.4167 6.5 12.4167C7.36195 12.4167 8.1886 12.0743 8.7981 11.4648C9.40759 10.8553 9.75 10.0287 9.75 9.16671V3.75004C9.75 3.1754 9.52173 2.6243 9.1154 2.21798C8.70907 1.81165 8.15797 1.58337 7.58333 1.58337C7.0087 1.58337 6.4576 1.81165 6.05127 2.21798C5.64494 2.6243 5.41667 3.1754 5.41667 3.75004V8.72362C5.41667 8.86589 5.44469 9.00676 5.49913 9.1382C5.55357 9.26963 5.63337 9.38906 5.73397 9.48966C5.83456 9.59025 5.95399 9.67005 6.08543 9.72449C6.21686 9.77894 6.35773 9.80696 6.5 9.80696V9.80696C6.78732 9.80696 7.06287 9.69282 7.26603 9.48966C7.4692 9.28649 7.58333 9.01094 7.58333 8.72362V4.83337" stroke="white" stroke-linecap="round" stroke-linejoin="round"/>
</svg>
