<svg width="14" height="13" viewBox="0 0 14 13" fill="none" xmlns="http://www.w3.org/2000/svg">
<path d="M6.50199 11.7803C4.99311 11.7803 3.54603 11.2011 2.47909 10.1701C1.41215 9.13912 0.812749 7.74082 0.812749 6.2828C0.812749 4.82479 1.41215 3.42649 2.47909 2.39552C3.54603 1.36454 4.99311 0.78535 6.50199 0.78535C8.01087 0.78535 9.45795 1.36454 10.5249 2.39552C11.5918 3.42649 12.1912 4.82479 12.1912 6.2828C12.1912 7.74082 11.5918 9.13912 10.5249 10.1701C9.45795 11.2011 8.01087 11.7803 6.50199 11.7803ZM6.50199 12.5656C8.22642 12.5656 9.88023 11.9037 11.0996 10.7254C12.3189 9.54716 13.004 7.94911 13.004 6.2828C13.004 4.6165 12.3189 3.01844 11.0996 1.84019C9.88023 0.661936 8.22642 0 6.50199 0C4.77755 0 3.12375 0.661936 1.90439 1.84019C0.685029 3.01844 0 4.6165 0 6.2828C0 7.94911 0.685029 9.54716 1.90439 10.7254C3.12375 11.9037 4.77755 12.5656 6.50199 12.5656Z" fill="#EAF3F9"/>
<path d="M7.25814 5.17366L5.39695 5.39905L5.3303 5.69749L5.69604 5.76267C5.93499 5.81765 5.98213 5.90089 5.93011 6.131L5.3303 8.8546C5.17263 9.55905 5.41564 9.89047 5.987 9.89047C6.42995 9.89047 6.94442 9.69256 7.17768 9.42083L7.2492 9.09413C7.08665 9.23235 6.84933 9.28732 6.69166 9.28732C6.46815 9.28732 6.38688 9.13575 6.44458 8.86873L7.25814 5.17366ZM7.31504 3.53385C7.31504 3.74214 7.22941 3.94189 7.07699 4.08917C6.92457 4.23646 6.71784 4.3192 6.50229 4.3192C6.28673 4.3192 6.08001 4.23646 5.92759 4.08917C5.77517 3.94189 5.68954 3.74214 5.68954 3.53385C5.68954 3.32556 5.77517 3.1258 5.92759 2.97852C6.08001 2.83124 6.28673 2.7485 6.50229 2.7485C6.71784 2.7485 6.92457 2.83124 7.07699 2.97852C7.22941 3.1258 7.31504 3.32556 7.31504 3.53385Z" fill="#EAF3F9"/>
</svg>
