<svg width="10" height="16" viewBox="0 0 10 16" fill="none" xmlns="http://www.w3.org/2000/svg">
<path d="M9.04537 0.840615C9.25627 1.05158 9.37475 1.33768 9.37475 1.63599C9.37475 1.9343 9.25627 2.2204 9.04537 2.43137L3.47662 8.00012L9.04537 13.5689C9.25029 13.781 9.36369 14.0652 9.36112 14.3602C9.35856 14.6552 9.24025 14.9373 9.03166 15.1459C8.82308 15.3545 8.54091 15.4728 8.24594 15.4754C7.95097 15.4779 7.6668 15.3645 7.45462 15.1596L1.09049 8.79549C0.879588 8.58452 0.761108 8.29842 0.761108 8.00012C0.761108 7.70181 0.879588 7.41571 1.09049 7.20474L7.45462 0.840615C7.66559 0.62971 7.95168 0.51123 8.24999 0.51123C8.5483 0.51123 8.8344 0.62971 9.04537 0.840615Z" fill="#151515"/>
</svg>
