<svg width="95" height="23" viewBox="0 0 95 23" fill="none" xmlns="http://www.w3.org/2000/svg">
<g clip-path="url(#clip0_4268_11056)">
<path d="M50.3954 22.745L49.3151 20.3675L48.2351 22.745L46.8281 19.0816H47.4604L48.0768 20.7346L48.2929 21.3674L48.5617 20.7449L49.3151 19.0816V19.1174V19.0816L50.0792 20.7856L50.3321 21.3777L50.5323 20.7959L51.17 19.0816H51.8023L50.3954 22.745Z" fill="white"/>
<path d="M52.9145 21.3011H53.61C54.0209 21.2756 54.3583 20.8982 54.3583 20.4338C54.3583 19.9848 54.0527 19.6174 53.6679 19.5716H52.9145V21.3011ZM54.1105 21.6685L54.848 22.6583H54.1423L53.4887 21.7755H52.9145V22.6583H52.3613V19.0866H52.83H52.9145H53.6679V19.0972C54.3319 19.1175 54.8642 19.7142 54.8642 20.4338C54.8642 20.9847 54.5585 21.4543 54.1105 21.6685Z" fill="white"/>
<path d="M56.1079 22.6582H55.5332V19.0864H56.1079V22.6582Z" fill="white"/>
<path d="M59.3581 19.097V19.607H58.2517V22.6533H57.6296V19.607H56.5547V19.097H59.3581Z" fill="white"/>
<path d="M60.3638 22.6582H59.7891V19.0864H60.3638V22.6582Z" fill="white"/>
<path d="M61.0759 19.0101L63.1098 20.954L63.5521 21.3981L63.547 20.8524V19.0917H64.1532V22.7041L62.019 20.704L61.6555 20.3266L61.6609 20.7705V22.638H61.0759V19.0101Z" fill="white"/>
<path d="M68.6636 20.8777C68.6636 21.9133 67.9103 22.74 66.7985 22.74C65.7499 22.74 64.8965 21.9133 64.8965 20.8777C64.8965 19.852 65.7499 19.005 66.7985 19.005C67.6046 19.005 68.0367 19.3317 68.3792 19.6581L67.9207 20.0052C67.6888 19.7959 67.3412 19.5611 66.7985 19.5611C66.0766 19.5611 65.497 20.1478 65.497 20.8777C65.497 21.6121 66.0766 22.2043 66.7985 22.2043C67.3676 22.2043 67.8629 21.8727 68.0208 21.3163H67.0988V20.8164H68.6636V20.8777Z" fill="white"/>
<path d="M73.7892 21.7401C73.7628 22.3165 73.1254 22.75 72.372 22.7145C71.7502 22.6787 71.2549 22.3368 71.1074 21.9085L71.7502 21.7401C71.8503 21.995 72.061 22.133 72.4035 22.1481C72.7934 22.1685 73.1254 22.0104 73.1359 21.7043C73.1623 21.4083 72.8566 21.1686 72.4613 21.148C72.4457 21.148 72.435 21.148 72.4194 21.1377C71.687 21.0818 71.1916 20.5716 71.218 20.0152C71.2549 19.4337 71.8293 18.9899 72.5776 19.0357C73.0939 19.0614 73.5153 19.3008 73.7313 19.6224L73.1623 19.852C73.0463 19.6788 72.8143 19.5817 72.5458 19.5662C72.1665 19.5408 71.803 19.7401 71.7925 20.0407C71.7763 20.3371 72.0978 20.5971 72.4877 20.6174C73.2411 20.658 73.8263 21.1686 73.7892 21.7401Z" fill="white"/>
<path d="M74.9548 19.5662V21.0869H76.3986V21.5662H74.9548V22.1787H76.6408V22.6583H74.4121V19.0866H76.6408V19.5662H74.9548Z" fill="white"/>
<path d="M77.9419 21.3011H78.6374C79.0482 21.2756 79.3857 20.8982 79.3857 20.4338C79.3857 19.9848 79.08 19.6174 78.6952 19.5716H77.9419V21.3011ZM79.1378 21.6685L79.8753 22.6583H79.1696L78.516 21.7755H77.9419V22.6583H77.3887V19.0866H77.8574H77.9419H78.6952V19.0972C79.3593 19.1175 79.8915 19.7142 79.8915 20.4338C79.8915 20.9847 79.5858 21.4543 79.1378 21.6685Z" fill="white"/>
<path d="M83.496 19.0867L81.8044 22.7297L80.3711 19.0867H80.9773L81.6465 20.8216L81.852 21.408L82.084 20.8368L82.8742 19.0867H83.496Z" fill="white"/>
<path d="M84.512 22.6582H83.9375V19.0864H84.512V22.6582Z" fill="white"/>
<path d="M88.5528 21.8572C88.2157 22.3726 87.6257 22.7145 86.9562 22.7145C85.9238 22.7145 85.1016 21.8827 85.1016 20.8673C85.1016 19.8468 85.9238 19.0253 86.9562 19.0253C87.5888 19.0253 88.1471 19.3211 88.495 19.7958L88.0785 20.0765C87.8151 19.7194 87.4569 19.4949 86.9562 19.4949C86.2292 19.4949 85.6233 20.1223 85.6233 20.8673C85.6233 21.6072 86.2292 22.24 86.9562 22.24C87.4411 22.24 87.8309 22.0001 88.0734 21.6585L88.5528 21.8572Z" fill="white"/>
<path d="M89.7439 19.5662V21.0869H91.1877V21.5662H89.7439V22.1787H91.4298V22.6583H89.2012V19.0866H91.4298V19.5662H89.7439Z" fill="white"/>
<path d="M94.67 21.7401C94.6437 22.3165 94.0063 22.75 93.2529 22.7145C92.6311 22.6787 92.136 22.3368 91.9883 21.9085L92.6311 21.7401C92.7312 21.995 92.9418 22.133 93.2844 22.1481C93.6742 22.1685 94.0063 22.0104 94.0167 21.7043C94.0431 21.4083 93.7375 21.1686 93.3425 21.148C93.3266 21.148 93.3161 21.148 93.3002 21.1377C92.5678 21.0818 92.0725 20.5716 92.0989 20.0152C92.136 19.4337 92.7102 18.9899 93.4584 19.0357C93.9748 19.0614 94.3961 19.3008 94.6122 19.6224L94.0431 19.852C93.9271 19.6788 93.6952 19.5817 93.4267 19.5662C93.0473 19.5408 92.6838 19.7401 92.6733 20.0407C92.6572 20.3371 92.9787 20.5971 93.3686 20.6174C94.1219 20.658 94.7072 21.1686 94.67 21.7401Z" fill="white"/>
<path d="M0.396484 17.9062C0.396484 17.9062 2.21285 18.2472 6.14161 15.2186C10.0698 12.1898 17.1348 7.23873 25.5827 7.34525C25.5827 7.34525 19.2994 4.83951 7.19752 11.9767L9.94306 6.47421L11.3265 9.21159L14.1378 8.11234L9.90053 0.118103L0.396484 17.9062Z" fill="url(#paint0_linear_4268_11056)"/>
<path d="M12.3398 11.7474C12.3398 11.7474 14.8427 17.8209 19.1936 17.7782L15.3655 10.2782L12.3398 11.7474Z" fill="white"/>
<path fill-rule="evenodd" clip-rule="evenodd" d="M47.6435 9.50701C48.4406 8.7465 49.4372 8.35851 50.6496 8.35851C51.8453 8.35851 52.8417 8.7465 53.639 9.50701C54.4366 10.2672 54.835 11.2139 54.835 12.3621V17.4062H53.5562V12.2381C53.5562 11.4933 53.2571 10.8571 52.6761 10.3139C52.0946 9.77072 51.4302 9.50701 50.6496 9.50701C49.8691 9.50701 49.1713 9.77072 48.5903 10.3139C48.009 10.8571 47.7266 11.4933 47.7266 12.2381V17.4062H46.4476V12.3621C46.4476 11.2139 46.8462 10.2672 47.6435 9.50701ZM62.6245 10.019C63.4385 8.82409 64.5344 8.26545 65.913 8.37397C66.9428 8.45157 67.7733 8.80863 68.4209 9.44487C69.1017 10.112 69.4508 11.0123 69.4508 12.1138V17.4062H68.1385V11.9744C68.1385 11.2915 67.9225 10.7019 67.5074 10.2208C67.092 9.7398 66.5274 9.49154 65.8467 9.49154C65.1491 9.49154 64.5509 9.70859 64.0362 10.1275C63.5378 10.5467 63.2888 11.0741 63.2888 11.7104V17.4062H61.9601V11.7104C61.9601 11.0741 61.7109 10.5467 61.196 10.1275C60.6981 9.70859 60.0998 9.49154 59.4023 9.49154C58.7215 9.49154 58.1732 9.7398 57.7581 10.2208C57.3427 10.7019 57.1436 11.276 57.1436 11.9744V17.4062H55.8317V12.1138C55.8317 11.0123 56.1637 10.112 56.8448 9.44487C57.4756 8.80863 58.3061 8.45157 59.336 8.37397C60.7145 8.26545 61.8104 8.82409 62.6245 10.019ZM82.5714 9.50701C83.3687 8.7465 84.3651 8.35851 85.5775 8.35851C86.7732 8.35851 87.7699 8.7465 88.5672 9.50701C89.3642 10.2672 89.7629 11.2139 89.7629 12.3621V17.4062H88.4841V12.2381C88.4841 11.4933 88.185 10.8571 87.6037 10.3139C87.0224 9.77072 86.3581 9.50701 85.5775 9.50701C84.7969 9.50701 84.0994 9.77072 83.5181 10.3139C82.9366 10.8571 82.6545 11.4933 82.6545 12.2381V17.4062H81.3754V12.3621C81.3754 11.2139 81.7744 10.2672 82.5714 9.50701ZM94.2139 8.54463V9.64674H92.0383V14.6436C92.0383 15.9628 92.769 16.6145 94.2139 16.6145V17.592C91.9053 17.592 90.7592 16.6766 90.7592 14.8452V5.45649H92.0383V8.54463H94.2139ZM71.9749 9.64674C73.0214 8.68436 74.2338 8.23424 75.6453 8.31184C76.9079 8.38943 78.0041 8.87048 78.9341 9.77072C79.831 10.6552 80.2792 11.6482 80.2792 12.7503V13.3866H71.7758C71.875 14.2714 72.274 15.0161 72.9879 15.5902C73.7022 16.1646 74.5327 16.4593 75.4959 16.4438C76.9907 16.4283 78.054 15.7763 78.7016 14.5039H80.0467C79.698 15.4508 79.1 16.211 78.253 16.7697C77.4061 17.3283 76.4758 17.6078 75.446 17.6235C74.1508 17.6387 73.0047 17.2043 72.008 16.3041C71.0117 15.3886 70.4967 14.3177 70.4803 13.0607C70.4468 11.7419 70.945 10.5931 71.9749 9.64674ZM22.5316 12.0674L23.6275 12.409C24.8898 12.8125 25.5709 13.6039 25.654 14.7679C25.7203 15.5593 25.4212 16.2577 24.7571 16.8475C24.0925 17.4214 23.3287 17.6856 22.465 17.6387C21.6677 17.592 21.0036 17.2819 20.4552 16.7387C19.9239 16.1955 19.6582 15.5438 19.6582 14.7833H20.9702V15.0783C20.9702 15.3729 21.153 15.6833 21.5018 16.0094C21.8506 16.335 22.2325 16.4905 22.6311 16.475C23.1625 16.4593 23.5779 16.3198 23.8935 16.0249C24.1759 15.7612 24.3086 15.4041 24.3253 14.9695C24.342 14.2092 23.8767 13.697 22.9467 13.4175L21.8338 13.0919C20.6713 12.7503 20.0569 12.0053 20.007 10.8725C19.9738 10.1896 20.223 9.60007 20.7376 9.11902C21.269 8.63769 21.9005 8.37397 22.6476 8.34305C23.2955 8.31184 23.8935 8.5137 24.4413 8.93261C25.0061 9.35181 25.3049 9.86378 25.3548 10.4846L25.3716 10.7483H24.0429V10.5467C24.0429 9.92592 23.3786 9.50701 22.6476 9.50701C21.9336 9.52247 21.3356 10.0344 21.3189 10.7174C21.269 11.3536 21.6844 11.8037 22.5316 12.0674ZM29.4242 12.0674L30.5201 12.409C31.7825 12.8125 32.4635 13.6039 32.5466 14.7679C32.613 15.5593 32.3138 16.2577 31.6498 16.8475C30.9854 17.4214 30.2213 17.6856 29.3576 17.6387C28.5606 17.592 27.8962 17.2819 27.3479 16.7387C26.8165 16.1955 26.5508 15.5438 26.5508 14.7833H27.8631V15.0783C27.8631 15.3729 28.0457 15.6833 28.3944 16.0094C28.7432 16.335 29.1251 16.4905 29.5238 16.475C30.0551 16.4593 30.4705 16.3198 30.7861 16.0249C31.0685 15.7612 31.2012 15.4041 31.2179 14.9695C31.2347 14.2092 30.7694 13.697 29.8394 13.4175L28.7264 13.0919C27.5639 12.7503 26.9495 12.0053 26.8996 10.8725C26.8664 10.1896 27.1156 9.60007 27.6303 9.11902C28.1616 8.63769 28.7931 8.37397 29.5402 8.34305C30.1881 8.31184 30.7861 8.5137 31.3342 8.93261C31.8987 9.35181 32.1976 9.86378 32.2475 10.4846L32.2642 10.7483H30.9355V10.5467C30.9355 9.92592 30.2712 9.50701 29.5402 9.50701C28.8263 9.52247 28.2283 10.0344 28.2115 10.7174C28.1616 11.3536 28.577 11.8037 29.4242 12.0674ZM40.6681 16.382C41.648 16.382 42.4618 16.0558 43.1426 15.3886C43.8237 14.7212 44.1891 13.9298 44.2056 12.9986C44.239 12.0208 43.8903 11.1829 43.1426 10.4536C42.4119 9.72433 41.5318 9.38274 40.4852 9.42941C39.5056 9.47579 38.6915 9.84832 38.0108 10.5467C37.3297 11.2451 36.9977 12.0517 37.0141 12.9828C37.0308 13.9298 37.3963 14.7212 38.1103 15.3886C38.8245 16.0558 39.6715 16.382 40.6681 16.382ZM40.4688 8.26545C41.8306 8.23424 43.0099 8.68436 44.0065 9.61553C45.0194 10.5312 45.5011 11.6331 45.4846 12.9055V16.987C45.4846 18.1043 44.9865 19.0354 44.0065 19.7647C43.0266 20.4943 41.9137 20.8511 40.6514 20.8047C39.522 20.758 38.5421 20.4476 37.7283 19.8426C36.9478 19.2682 36.4328 18.5232 36.1672 17.6235H37.3963C37.5789 18.2285 38.0108 18.7563 38.6584 19.1906C39.3063 19.6407 40.0202 19.8581 40.8011 19.8581C41.7311 19.8426 42.5284 19.5477 43.2092 18.9424C43.8903 18.3528 44.239 17.6387 44.239 16.8163V15.9782C43.309 16.9715 42.1462 17.4992 40.7512 17.5456C39.3893 17.592 38.2101 17.1422 37.2302 16.2268C36.2502 15.2956 35.7521 14.1783 35.7521 12.8898C35.7521 11.6482 36.2003 10.5776 37.1139 9.67766C38.0275 8.77742 39.1568 8.31184 40.4688 8.26545ZM34.6888 17.4062H33.4432V8.56038H34.6888V17.4062ZM71.7776 12.491H79.0079C79.0079 10.1287 76.8813 9.26973 75.6054 9.26973C74.3294 9.26973 71.7776 9.99989 71.7776 12.491Z" fill="white"/>
<path d="M32.8145 5.7592C32.8145 6.455 33.3727 7.0188 34.0618 7.0188C34.7508 7.0188 35.3093 6.455 35.3093 5.7592C35.3093 5.0634 34.7508 4.49961 34.0618 4.49961C33.3727 4.49961 32.8145 5.0634 32.8145 5.7592Z" fill="url(#paint1_linear_4268_11056)"/>
</g>
<defs>
<linearGradient id="paint0_linear_4268_11056" x1="5.74692" y1="39.825" x2="-16.5229" y2="15.8041" gradientUnits="userSpaceOnUse">
<stop stop-color="#2DD1DB"/>
<stop offset="0.60721" stop-color="#2D9CDB"/>
<stop offset="1" stop-color="#1A8ED0"/>
</linearGradient>
<linearGradient id="paint1_linear_4268_11056" x1="33.3445" y1="10.1193" x2="30.3045" y2="7.82436" gradientUnits="userSpaceOnUse">
<stop stop-color="#2DD1DB"/>
<stop offset="0.60721" stop-color="#2D9CDB"/>
<stop offset="1" stop-color="#1A8ED0"/>
</linearGradient>
<clipPath id="clip0_4268_11056">
<rect width="95" height="23" fill="white"/>
</clipPath>
</defs>
</svg>
