<svg width="24" height="25" viewBox="0 0 24 25" fill="none" xmlns="http://www.w3.org/2000/svg">
<path d="M24 19.8735L23.7262 19.6473C22.9493 18.9993 22.2694 18.2561 21.7047 17.4379C21.088 16.3087 20.7183 15.0755 20.6175 13.8108V10.0857C20.6228 8.09918 19.8532 6.17921 18.4532 4.68653C17.0533 3.19384 15.1193 2.23119 13.0148 1.97943V1.00668C13.0148 0.739695 12.9015 0.483641 12.6999 0.294851C12.4982 0.106061 12.2247 0 11.9396 0C11.6544 0 11.381 0.106061 11.1793 0.294851C10.9777 0.483641 10.8644 0.739695 10.8644 1.00668V1.99452C8.77873 2.26442 6.86817 3.23289 5.4866 4.72056C4.10504 6.20823 3.34609 8.11428 3.35034 10.0857V13.8108C3.24947 15.0755 2.87982 16.3087 2.26309 17.4379C1.70809 18.254 1.03908 18.9971 0.273826 19.6473L0 19.8735V22H24V19.8735Z" fill="white"/>
<path d="M10 23C10.0668 23.5544 10.3061 24.0623 10.6737 24.4299C11.0414 24.7975 11.5124 25 12 25C12.4876 25 12.9586 24.7975 13.3263 24.4299C13.6939 24.0623 13.9332 23.5544 14 23H10Z" fill="white"/>
</svg>
