<svg width="10" height="16" viewBox="0 0 10 16" fill="none" xmlns="http://www.w3.org/2000/svg">
<path d="M0.954633 15.1594C0.743728 14.9484 0.625248 14.6623 0.625248 14.364C0.625248 14.0657 0.743728 13.7796 0.954633 13.5686L6.52338 7.99988L0.954634 2.43113C0.749706 2.21896 0.636313 1.93478 0.638876 1.63981C0.641439 1.34484 0.759754 1.06267 0.968338 0.854087C1.17692 0.645503 1.45909 0.527189 1.75406 0.524626C2.04903 0.522063 2.33321 0.635457 2.54538 0.840384L8.90951 7.20451C9.12041 7.41548 9.23889 7.70158 9.23889 7.99988C9.23889 8.29819 9.12041 8.58429 8.90951 8.79526L2.54538 15.1594C2.33441 15.3703 2.04832 15.4888 1.75001 15.4888C1.4517 15.4888 1.1656 15.3703 0.954633 15.1594V15.1594Z" fill="#151515"/>
</svg>
