<svg width="28" height="28" viewBox="0 0 28 28" fill="none" xmlns="http://www.w3.org/2000/svg">
<g clip-path="url(#clip0_3208_24688)">
<path d="M17.0187 13.2213L-2.23129 3.59632C-2.38217 3.52086 -2.55164 3.49063 -2.7193 3.50926C-2.88696 3.52789 -3.04566 3.59458 -3.17629 3.70132C-3.30104 3.80587 -3.39416 3.94315 -3.44517 4.09773C-3.49618 4.25231 -3.50306 4.41804 -3.46504 4.57632L-1.14629 13.1251H8.74996V14.8751H-1.14629L-3.50004 23.3976C-3.53572 23.5297 -3.53988 23.6684 -3.5122 23.8025C-3.48452 23.9366 -3.42576 24.0623 -3.34065 24.1695C-3.25554 24.2768 -3.14646 24.3625 -3.02217 24.4199C-2.89789 24.4774 -2.76186 24.5048 -2.62504 24.5001C-2.48807 24.4992 -2.3532 24.4663 -2.23129 24.4038L17.0187 14.7788C17.162 14.7054 17.2823 14.5938 17.3663 14.4564C17.4503 14.319 17.4947 14.1611 17.4947 14.0001C17.4947 13.839 17.4503 13.6811 17.3663 13.5437C17.2823 13.4063 17.162 13.2947 17.0187 13.2213Z" fill="#2D9CDB"/>
</g>
<defs>
<clipPath id="clip0_3208_24688">
<rect width="28" height="28" fill="white"/>
</clipPath>
</defs>
</svg>
