<svg width="18" height="22" viewBox="0 0 18 22" fill="none" xmlns="http://www.w3.org/2000/svg">
<g opacity="0.15" clip-path="url(#clip0_2097_10)">
<path d="M4.99436 10H12.9853V7C12.9853 5.89583 12.5952 4.95312 11.8148 4.17188C11.0344 3.39062 10.0928 3 8.98985 3C7.88693 3 6.94528 3.39062 6.16491 4.17188C5.38454 4.95312 4.99436 5.89583 4.99436 7V10ZM17.9797 11.5V20.5C17.9797 20.9167 17.834 21.2708 17.5427 21.5625C17.2514 21.8542 16.8976 22 16.4814 22H1.49831C1.08211 22 0.728344 21.8542 0.437007 21.5625C0.145669 21.2708 0 20.9167 0 20.5V11.5C0 11.0833 0.145669 10.7292 0.437007 10.4375C0.728344 10.1458 1.08211 10 1.49831 10H1.99774V7C1.99774 5.08333 2.68447 3.4375 4.05792 2.0625C5.43137 0.6875 7.07534 0 8.98985 0C10.9044 0 12.5483 0.6875 13.9218 2.0625C15.2952 3.4375 15.982 5.08333 15.982 7V10H16.4814C16.8976 10 17.2514 10.1458 17.5427 10.4375C17.834 10.7292 17.9797 11.0833 17.9797 11.5Z" fill="black"/>
</g>
<defs>
<clipPath id="clip0_2097_10">
<rect width="17.9797" height="22" fill="white"/>
</clipPath>
</defs>
</svg>
