<svg width="28" height="28" viewBox="0 0 28 28" fill="none" xmlns="http://www.w3.org/2000/svg">
<path d="M25.6666 23.3333V14.203C25.6667 13.5678 25.537 12.9392 25.2857 12.3559C25.0343 11.7725 24.6665 11.2466 24.2048 10.8103L15.6029 2.68101C15.1697 2.27143 14.5961 2.04321 13.9999 2.04321C13.4037 2.04321 12.8301 2.27143 12.3969 2.68101L3.79509 10.8103C3.33335 11.2466 2.96553 11.7725 2.71417 12.3559C2.4628 12.9392 2.33318 13.5678 2.33325 14.203V23.3333C2.33325 23.9522 2.57908 24.5457 3.01667 24.9833C3.45425 25.4208 4.04775 25.6667 4.66659 25.6667H23.3333C23.9521 25.6667 24.5456 25.4208 24.9832 24.9833C25.4208 24.5457 25.6666 23.9522 25.6666 23.3333Z" stroke="white" stroke-width="2" stroke-linecap="round" stroke-linejoin="round"/>
</svg>
