<svg width="35" height="35" viewBox="0 0 35 35" fill="none" xmlns="http://www.w3.org/2000/svg">
<path d="M5.83333 11.6667C6.63875 11.6667 7.29167 11.0137 7.29167 10.2083C7.29167 9.40292 6.63875 8.75 5.83333 8.75C5.02792 8.75 4.375 9.40292 4.375 10.2083C4.375 11.0137 5.02792 11.6667 5.83333 11.6667Z" fill="white"/>
<path d="M5.83333 18.9584C6.63875 18.9584 7.29167 18.3054 7.29167 17.5C7.29167 16.6946 6.63875 16.0417 5.83333 16.0417C5.02792 16.0417 4.375 16.6946 4.375 17.5C4.375 18.3054 5.02792 18.9584 5.83333 18.9584Z" fill="white"/>
<path d="M5.83333 26.25C6.63875 26.25 7.29167 25.5971 7.29167 24.7916C7.29167 23.9862 6.63875 23.3333 5.83333 23.3333C5.02792 23.3333 4.375 23.9862 4.375 24.7916C4.375 25.5971 5.02792 26.25 5.83333 26.25Z" fill="white"/>
<path d="M29.2541 16.0417H11.5791C10.822 16.0417 10.2083 16.6554 10.2083 17.4125V17.5875C10.2083 18.3446 10.822 18.9584 11.5791 18.9584H29.2541C30.0112 18.9584 30.6249 18.3446 30.6249 17.5875V17.4125C30.6249 16.6554 30.0112 16.0417 29.2541 16.0417Z" fill="white"/>
<path d="M29.2541 23.3333H11.5791C10.822 23.3333 10.2083 23.9471 10.2083 24.7041V24.8791C10.2083 25.6362 10.822 26.25 11.5791 26.25H29.2541C30.0112 26.25 30.6249 25.6362 30.6249 24.8791V24.7041C30.6249 23.9471 30.0112 23.3333 29.2541 23.3333Z" fill="white"/>
<path d="M29.2541 8.75H11.5791C10.822 8.75 10.2083 9.36374 10.2083 10.1208V10.2958C10.2083 11.0529 10.822 11.6667 11.5791 11.6667H29.2541C30.0112 11.6667 30.6249 11.0529 30.6249 10.2958V10.1208C30.6249 9.36374 30.0112 8.75 29.2541 8.75Z" fill="white"/>
</svg>
