<svg width="28" height="28" viewBox="0 0 28 28" fill="none" xmlns="http://www.w3.org/2000/svg">
<path d="M24.9783 13.51L14.4783 3.01001C14.0583 2.59001 13.4749 2.33334 12.8333 2.33334H4.66659C3.38325 2.33334 2.33325 3.38334 2.33325 4.66668V12.8333C2.33325 13.475 2.58992 14.0583 3.02159 14.49L13.5216 24.99C13.9416 25.41 14.5249 25.6667 15.1666 25.6667C15.8083 25.6667 16.3916 25.41 16.8116 24.9783L24.9783 16.8117C25.4099 16.3917 25.6666 15.8083 25.6666 15.1667C25.6666 14.525 25.3983 13.93 24.9783 13.51ZM15.1666 23.345L4.66659 12.8333V4.66668H12.8333V4.65501L23.3333 15.155L15.1666 23.345Z" fill="white"/>
<path d="M7.58325 9.33334C8.54975 9.33334 9.33325 8.54984 9.33325 7.58334C9.33325 6.61685 8.54975 5.83334 7.58325 5.83334C6.61675 5.83334 5.83325 6.61685 5.83325 7.58334C5.83325 8.54984 6.61675 9.33334 7.58325 9.33334Z" fill="white"/>
</svg>
